<mxfile host="app.diagrams.net" modified="2023-01-30T11:40:25.271Z" agent="5.0 (Macintosh; Intel Mac OS X 10_15_7) AppleWebKit/537.36 (KHTML, like Gecko) Chrome/109.0.0.0 Safari/537.36" version="20.6.0" etag="PTGhzUV43-2xdhCsCn6s" type="github">
  <diagram id="Nph4_47aV4eLHXNQqk-4" name="第 1 页">
    <mxGraphModel dx="1049" dy="634" grid="1" gridSize="10" guides="1" tooltips="1" connect="1" arrows="1" fold="1" page="1" pageScale="1" pageWidth="827" pageHeight="583" math="0" shadow="0">
      <root>
        <mxCell id="0" />
        <mxCell id="1" parent="0" />
        <mxCell id="jCG9Ow0SHEMIDmaNDsrn-1" value="" style="shape=image;verticalLabelPosition=bottom;labelBackgroundColor=default;verticalAlign=top;aspect=fixed;imageAspect=0;image=https://vfiles.gtimg.cn/xy_open/xy/beacon_saas/UgfJqYqe.png;" vertex="1" parent="1">
          <mxGeometry x="220" y="150" width="520" height="214" as="geometry" />
        </mxCell>
        <mxCell id="jCG9Ow0SHEMIDmaNDsrn-2" value="https://doc.beacon.qq.com/page/doc?id=0070e7ef33db6a49" style="text;html=1;strokeColor=none;fillColor=none;align=center;verticalAlign=middle;whiteSpace=wrap;rounded=0;" vertex="1" parent="1">
          <mxGeometry x="360" y="90" width="220" height="30" as="geometry" />
        </mxCell>
      </root>
    </mxGraphModel>
  </diagram>
</mxfile>
